<?xml version="1.0" encoding="utf-8"?>
<!-- Generator: Adobe Illustrator 24.1.0, SVG Export Plug-In . SVG Version: 6.00 Build 0)  -->
<svg version="1.1" id="ad419f4c-f1c3-40be-9af5-d87c41c4e9c2"
	 xmlns="http://www.w3.org/2000/svg" xmlns:xlink="http://www.w3.org/1999/xlink" x="0px" y="0px" viewBox="0 0 217.3 174"
	 style="enable-background:new 0 0 217.3 174;" xml:space="preserve">
<style type="text/css">
	.st0{fill:#E87474;}
	.st1{fill:#FFFFFF;}
	.st2{fill:#FFB70A;}
	.st3{fill:#71B429;}
	.st4{opacity:0.5;}
	.st5{fill:#55990B;}
	.st6{fill:#D65D5D;}
	.st7{opacity:0.5;fill:#FFB70A;enable-background:new    ;}
	.st8{fill:#E88D0B;}
	.st9{fill:#5E6981;}
	.st10{fill:#336791;}
</style>
<rect x="24.7" y="20.9" class="st0" width="120.3" height="1.1"/>
<path d="M15.9,121.4l-2.4-6.3l0,0c0,0.5,0.1,1.1,0.1,1.8v4.5h-0.8v-7.1H14l2.3,5.9l0,0l2.3-5.9h1.2v7.1H19v-4.6c0-0.6,0-1.1,0.1-1.7
	l0,0l-2.5,6.3H15.9z"/>
<path d="M25,121.4l-0.2-0.8l0,0c-0.2,0.3-0.5,0.5-0.8,0.7c-0.3,0.1-0.7,0.2-1,0.2c-0.5,0-0.9-0.1-1.2-0.4c-0.3-0.3-0.5-0.7-0.5-1.1
	c0-1.1,0.9-1.7,2.6-1.7h0.9v-0.4c0-0.3-0.1-0.6-0.3-0.9c-0.2-0.2-0.5-0.3-0.9-0.3c-0.5,0-1.1,0.2-1.5,0.4l-0.2-0.6
	c0.3-0.1,0.6-0.3,0.9-0.3c0.3-0.1,0.6-0.1,0.9-0.1c0.5,0,1,0.1,1.4,0.4c0.3,0.4,0.5,0.9,0.5,1.4v3.7L25,121.4z M23.2,120.9
	c0.4,0,0.9-0.1,1.2-0.4c0.3-0.3,0.5-0.7,0.4-1.2v-0.5H24c-0.5,0-1,0.1-1.4,0.3c-0.3,0.2-0.5,0.5-0.4,0.8c0,0.3,0.1,0.5,0.3,0.7
	C22.6,120.8,22.9,120.9,23.2,120.9L23.2,120.9z"/>
<path d="M30.7,120c0,0.5-0.2,0.9-0.6,1.2c-0.5,0.3-1,0.4-1.6,0.4c-0.6,0-1.1-0.1-1.7-0.3v-0.8c0.3,0.1,0.5,0.2,0.8,0.3
	c0.3,0.1,0.6,0.1,0.9,0.1c0.3,0,0.7,0,1-0.2c0.2-0.1,0.4-0.4,0.4-0.6c0-0.2-0.1-0.4-0.3-0.5c-0.3-0.2-0.7-0.4-1.1-0.5
	c-0.4-0.1-0.7-0.3-1.1-0.5c-0.2-0.1-0.3-0.3-0.5-0.5c-0.1-0.2-0.2-0.4-0.2-0.6c0-0.4,0.2-0.8,0.5-1c0.4-0.3,0.9-0.4,1.5-0.4
	c0.6,0,1.2,0.1,1.7,0.3l-0.3,0.7c-0.5-0.2-1-0.3-1.5-0.3c-0.3,0-0.6,0-0.9,0.2c-0.2,0.1-0.3,0.3-0.3,0.5c0,0.1,0,0.3,0.1,0.4
	c0.1,0.1,0.2,0.2,0.4,0.3c0.3,0.2,0.6,0.3,0.9,0.4c0.5,0.1,0.9,0.4,1.3,0.7C30.6,119.3,30.7,119.7,30.7,120z"/>
<path d="M33.7,120.9h0.4l0.3-0.1v0.6c-0.1,0.1-0.3,0.1-0.4,0.1c-0.2,0-0.3,0-0.5,0c-0.8,0.1-1.5-0.5-1.6-1.3c0-0.1,0-0.2,0-0.4v-3.2
	h-0.8v-0.4l0.8-0.3l0.3-1.1h0.5v1.2h1.6v0.6h-1.6v3.2c0,0.3,0.1,0.5,0.2,0.7C33.3,120.8,33.5,120.9,33.7,120.9z"/>
<path d="M37.8,121.5c-0.7,0-1.4-0.2-1.9-0.7c-0.5-0.6-0.7-1.3-0.7-2c0-0.7,0.2-1.5,0.6-2.1c0.4-0.5,1.1-0.8,1.7-0.8
	c0.6,0,1.2,0.2,1.6,0.7c0.4,0.5,0.6,1.1,0.6,1.8v0.5h-3.7c0,0.5,0.1,1,0.5,1.4c0.3,0.3,0.8,0.5,1.3,0.5c0.6,0,1.2-0.1,1.7-0.4v0.7
	C39,121.5,38.4,121.6,37.8,121.5L37.8,121.5z M37.6,116.7c-0.4,0-0.7,0.1-1,0.4c-0.3,0.3-0.4,0.7-0.5,1.2h2.8c0-0.4-0.1-0.8-0.3-1.2
	C38.3,116.8,38,116.6,37.6,116.7z"/>
<path d="M43.6,116c0.2,0,0.4,0,0.6,0.1l-0.1,0.8c-0.2,0-0.4-0.1-0.6-0.1c-0.4,0-0.8,0.2-1.1,0.5c-0.3,0.4-0.4,0.8-0.4,1.3v2.9h-0.8
	v-5.3h0.7l0.1,1l0,0c0.2-0.3,0.4-0.6,0.7-0.8C42.9,116.1,43.3,116,43.6,116z"/>
<path class="st1" d="M3.6,53.2h48.7c1.7,0,3,1.3,3,3v48.7c0,1.7-1.3,3-3,3H3.6c-1.7,0-3-1.3-3-3V56.2C0.6,54.5,1.9,53.2,3.6,53.2z"
	/>
<path class="st2" d="M52.2,108.4H3.6c-2,0-3.6-1.6-3.6-3.6c0,0,0,0,0,0l0,0V56.2c0-2,1.6-3.6,3.6-3.6h48.7c2,0,3.6,1.6,3.6,3.6v48.7
	C55.8,106.8,54.2,108.4,52.2,108.4z M3.6,53.7c-1.3,0-2.4,1.1-2.4,2.4l0,0v48.7c0,1.3,1.1,2.4,2.4,2.4l0,0h48.7
	c1.3,0,2.4-1.1,2.4-2.4l0,0l0,0V56.2c0-1.3-1.1-2.4-2.4-2.4l0,0H3.6z"/>
<path d="M101.5,119.5c0,0.6-0.2,1.1-0.7,1.5c-0.5,0.4-1.2,0.6-1.8,0.5c-0.7,0-1.4-0.1-2-0.3v-0.8c0.3,0.1,0.7,0.2,1,0.3
	c0.3,0.1,0.7,0.1,1,0.1c0.4,0,0.9-0.1,1.2-0.3c0.3-0.2,0.4-0.5,0.4-0.9c0-0.2-0.1-0.4-0.2-0.6c-0.1-0.2-0.3-0.3-0.5-0.4
	c-0.3-0.2-0.7-0.3-1.1-0.4c-0.5-0.2-1-0.5-1.4-0.8c-0.3-0.4-0.4-0.8-0.4-1.3c0-0.5,0.2-1,0.6-1.3c0.5-0.3,1.1-0.5,1.6-0.5
	c0.7,0,1.4,0.1,2,0.4l-0.2,0.7c-0.5-0.2-1.1-0.4-1.7-0.4c-0.4,0-0.7,0.1-1,0.3c-0.2,0.2-0.4,0.5-0.4,0.8c0,0.2,0,0.4,0.1,0.6
	c0.1,0.2,0.3,0.3,0.5,0.4c0.3,0.2,0.7,0.3,1,0.4c0.6,0.2,1.1,0.5,1.5,0.9C101.4,118.7,101.5,119.1,101.5,119.5z"/>
<path d="M103.6,121.4h-0.8v-7.6h0.8V121.4z"/>
<path d="M108.6,121.4l-0.2-0.8l0,0c-0.2,0.3-0.5,0.5-0.8,0.7c-0.3,0.1-0.7,0.2-1,0.2c-0.5,0-0.9-0.1-1.2-0.4
	c-0.3-0.3-0.4-0.7-0.4-1.1c0-1.1,0.9-1.7,2.6-1.7h0.9v-0.4c0-0.3-0.1-0.7-0.3-0.9c-0.2-0.2-0.5-0.3-0.9-0.3c-0.5,0-1.1,0.2-1.5,0.4
	l-0.2-0.6c0.3-0.1,0.6-0.3,0.9-0.3c0.3-0.1,0.6-0.1,0.9-0.1c0.5,0,1,0.1,1.4,0.4c0.3,0.4,0.5,0.9,0.5,1.4v3.7L108.6,121.4z
	 M106.8,120.9c0.4,0,0.9-0.1,1.2-0.4c0.3-0.3,0.5-0.7,0.4-1.2v-0.5h-0.8c-0.5,0-1,0.1-1.4,0.3c-0.3,0.2-0.5,0.5-0.4,0.8
	c0,0.3,0.1,0.5,0.3,0.7C106.3,120.8,106.5,120.9,106.8,120.9z"/>
<path d="M112.1,121.4l-2-5.3h0.9l1.2,3.2c0.2,0.5,0.3,1,0.4,1.4l0,0c0.1-0.4,0.2-0.7,0.3-1.1c0.2-0.5,0.6-1.7,1.3-3.6h0.9l-2,5.3
	L112.1,121.4z"/>
<path d="M118.2,121.5c-0.7,0-1.4-0.2-1.9-0.7c-0.5-0.6-0.7-1.3-0.7-2c0-0.7,0.2-1.5,0.6-2.1c0.4-0.5,1.1-0.8,1.8-0.8
	c0.6,0,1.2,0.2,1.6,0.7c0.4,0.5,0.6,1.1,0.6,1.8v0.5h-3.7c0,0.5,0.1,1,0.5,1.4c0.3,0.3,0.8,0.5,1.3,0.5c0.6,0,1.2-0.1,1.7-0.4v0.7
	c-0.3,0.1-0.5,0.2-0.8,0.3C118.8,121.5,118.5,121.6,118.2,121.5z M118,116.7c-0.4,0-0.7,0.1-1,0.4c-0.3,0.3-0.4,0.7-0.4,1.2h2.8
	c0-0.4-0.1-0.8-0.3-1.2C118.8,116.8,118.4,116.6,118,116.7z"/>
<path class="st1" d="M83.9,53.2h48.7c1.7,0,3,1.3,3,3v48.7c0,1.7-1.3,3-3,3H83.9c-1.7,0-3-1.3-3-3V56.2
	C80.9,54.5,82.2,53.2,83.9,53.2z"/>
<path class="st2" d="M132.5,108.4H83.9c-2,0-3.6-1.6-3.6-3.6V56.2c0-2,1.6-3.6,3.6-3.6h48.7c2,0,3.6,1.6,3.6,3.6v0l0,0v48.7
	C136.1,106.8,134.5,108.4,132.5,108.4L132.5,108.4z M83.9,53.8c-1.3,0-2.4,1.1-2.4,2.4l0,0v48.7c0,1.3,1.1,2.4,2.4,2.4l0,0h48.7
	c1.3,0,2.4-1.1,2.4-2.4V56.2c0-1.3-1.1-2.4-2.4-2.4H83.9z"/>
<path d="M181.6,119.5c0,0.6-0.2,1.1-0.7,1.5c-0.5,0.4-1.2,0.6-1.9,0.5c-0.7,0-1.4-0.1-2-0.3v-0.8c0.3,0.1,0.7,0.2,1,0.3
	c0.3,0.1,0.7,0.1,1,0.1c0.4,0,0.9-0.1,1.2-0.3c0.3-0.2,0.4-0.5,0.4-0.9c0-0.2,0-0.4-0.1-0.6c-0.1-0.2-0.3-0.3-0.5-0.4
	c-0.3-0.2-0.7-0.3-1.1-0.4c-0.5-0.2-1-0.5-1.4-0.8c-0.3-0.4-0.4-0.8-0.4-1.3c0-0.5,0.2-1,0.6-1.3c0.5-0.3,1.1-0.5,1.6-0.5
	c0.7,0,1.4,0.1,2,0.4l-0.3,0.7c-0.5-0.2-1.1-0.4-1.7-0.4c-0.4,0-0.7,0.1-1,0.3c-0.2,0.2-0.4,0.5-0.4,0.8c0,0.2,0,0.4,0.1,0.6
	c0.1,0.2,0.3,0.3,0.5,0.4c0.3,0.2,0.7,0.3,1,0.4c0.6,0.2,1.1,0.5,1.5,0.9C181.5,118.7,181.7,119.1,181.6,119.5z"/>
<path d="M183.8,121.4H183v-7.6h0.8L183.8,121.4z"/>
<path d="M188.8,121.4l-0.2-0.8l0,0c-0.2,0.3-0.5,0.5-0.8,0.7c-0.3,0.1-0.7,0.2-1,0.2c-0.5,0-0.9-0.1-1.2-0.4
	c-0.3-0.3-0.5-0.7-0.4-1.2c0-1.1,0.9-1.7,2.6-1.7h0.9v-0.4c0-0.3-0.1-0.7-0.3-0.9c-0.2-0.2-0.5-0.3-0.9-0.3c-0.5,0-1.1,0.2-1.5,0.4
	l-0.2-0.6c0.3-0.1,0.6-0.3,0.9-0.3c0.3-0.1,0.6-0.1,0.9-0.1c0.5,0,1,0.1,1.4,0.4c0.3,0.4,0.5,0.9,0.5,1.4v3.7H188.8z M186.9,120.9
	c0.4,0,0.9-0.1,1.2-0.4c0.3-0.3,0.5-0.7,0.4-1.2v-0.5h-0.8c-0.5,0-1,0.1-1.4,0.3c-0.3,0.2-0.4,0.5-0.4,0.8c0,0.3,0.1,0.5,0.3,0.7
	C186.4,120.8,186.7,120.9,186.9,120.9z"/>
<path d="M192.2,121.4l-2-5.3h0.9l1.2,3.2c0.3,0.7,0.4,1.2,0.5,1.4l0,0c0.1-0.4,0.2-0.7,0.3-1.1c0.2-0.6,0.6-1.7,1.3-3.6h0.9l-2,5.3
	L192.2,121.4z"/>
<path d="M198.3,121.5c-0.7,0-1.4-0.2-1.9-0.7c-0.5-0.6-0.7-1.3-0.7-2c0-0.7,0.2-1.5,0.6-2.1c0.4-0.5,1.1-0.8,1.7-0.8
	c0.6,0,1.2,0.2,1.6,0.7c0.4,0.5,0.6,1.1,0.6,1.8v0.5h-3.7c0,0.5,0.1,1,0.5,1.4c0.3,0.3,0.8,0.5,1.3,0.5c0.6,0,1.2-0.1,1.7-0.4v0.7
	C199.5,121.4,198.9,121.6,198.3,121.5L198.3,121.5z M198.1,116.7c-0.4,0-0.7,0.1-1,0.4c-0.3,0.3-0.4,0.7-0.4,1.2h2.8
	c0-0.4-0.1-0.8-0.3-1.2C198.9,116.8,198.5,116.6,198.1,116.7z"/>
<rect x="149" y="3.7" class="st3" width="1.1" height="21.3"/>
<polygon class="st3" points="149.5,0 146.9,5.4 152.1,5.4 "/>
<rect x="143.8" class="st0" width="1.1" height="21.3"/>
<rect x="70.7" y="3.7" class="st3" width="1.2" height="21.3"/>
<rect x="28.1" y="24.9" class="st3" width="1.1" height="21.3"/>
<rect x="108.7" y="24.9" class="st3" width="1.2" height="21.3"/>
<rect x="28.2" y="24.9" class="st3" width="122" height="1.1"/>
<rect x="24.1" y="20.9" class="st0" width="1.1" height="21.3"/>
<polygon class="st3" points="71.3,0 68.7,5.4 73.9,5.4 "/>
<polygon class="st0" points="24.7,46.4 22.1,41 27.2,41 "/>
<rect x="65.5" class="st0" width="1.2" height="21.3"/>
<g class="st4">
	<path class="st2" d="M213.7,108.4h-3.5v-1.2h3.4L213.7,108.4z M207.4,108.4H204v-1.2h3.4L207.4,108.4z M201.1,108.4h-3.4v-1.2h3.4
		L201.1,108.4z M194.9,108.4h-3.4v-1.2h3.4V108.4z M188.6,108.4h-3.4v-1.2h3.4V108.4z M182.3,108.4h-3.4v-1.2h3.4V108.4z M176,108.4
		h-3.4v-1.2h3.4L176,108.4z M169.7,108.4h-3.4v-1.2h3.4V108.4z M163.2,107.9c-1.1-0.6-1.8-1.8-1.8-3.1v-0.3h1.1v0.3
		c0,0.9,0.5,1.7,1.2,2.1L163.2,107.9z M216.6,106.9l-0.9-0.7c0.3-0.4,0.4-0.9,0.4-1.4v-1.6h1.1v1.6
		C217.3,105.6,217,106.3,216.6,106.9L216.6,106.9z M162.6,101.7h-1.1v-3.4h1.1V101.7z M217.3,100.4h-1.1V97h1.1V100.4z M162.6,95.4
		h-1.1V92h1.1V95.4z M217.3,94.1h-1.1v-3.4h1.1V94.1z M162.6,89.1h-1.1v-3.4h1.1V89.1z M217.3,87.8h-1.1v-3.4h1.1V87.8z M162.6,82.8
		h-1.1v-3.3h1.1V82.8z M217.3,81.5h-1.1v-3.3h1.1V81.5z M162.6,76.5h-1.1v-3.3h1.1V76.5z M217.3,75.1h-1.1v-3.3h1.1V75.1z
		 M162.6,70.1h-1.1v-3.3h1.1V70.1z M217.3,69h-1.1v-3.4h1.1V69z M162.6,64h-1.1v-3.4h1.1V64z M217.3,62.7h-1.1v-3.4h1.1V62.7z
		 M162.6,57.7h-1.1v-1.5c0-0.7,0.2-1.5,0.6-2.1l0.9,0.7c-0.3,0.4-0.4,0.9-0.4,1.4V57.7z M217.3,56.4h-1.1v-0.3
		c0-0.9-0.5-1.7-1.2-2.1l0.6-1c1.1,0.6,1.8,1.8,1.8,3.1L217.3,56.4z M212.4,53.7H209v-1.1h3.4L212.4,53.7z M206.1,53.7h-3.4v-1.1
		h3.4V53.7z M199.8,53.7h-3.4v-1.1h3.4L199.8,53.7z M193.6,53.7h-3.4v-1.1h3.4V53.7z M187.3,53.7h-3.4v-1.1h3.4V53.7z M181,53.7
		h-3.4v-1.1h3.4L181,53.7z M174.7,53.7h-3.4v-1.1h3.4V53.7z M168.4,53.7H165v-1.1h3.4L168.4,53.7z"/>
</g>
<g class="st4">
	<rect x="188.7" y="44.5" class="st3" width="1.1" height="1.7"/>
	<path class="st3" d="M189.9,41.3h-1.1v-3.8h1.1V41.3z M189.9,34.3h-1.1v-3.9h1.1V34.3z"/>
	<polygon class="st3" points="189.9,27.2 188.7,27.2 188.7,26.1 187.6,26.1 187.6,24.9 189.9,24.9 	"/>
	<path class="st3" d="M184.7,26.1h-3.5v-1.1h3.5V26.1z M178.4,26.1h-3.5v-1.1h3.5V26.1z M172,26.1h-3.5v-1.1h3.4L172,26.1z
		 M165.7,26.1h-3.5v-1.1h3.5V26.1z M159.4,26.1h-3.5v-1.1h3.5V26.1z"/>
	<rect x="151.3" y="24.9" class="st3" width="1.7" height="1.1"/>
</g>
<path class="st5" d="M166.2,17.5v-7.2h3.2c0.5,0,1,0,1.5,0.2c0.3,0.1,0.6,0.4,0.8,0.7c0.2,0.3,0.3,0.7,0.3,1.1
	c0,0.5-0.2,0.9-0.5,1.3c-0.4,0.4-1,0.6-1.5,0.7c0.2,0.1,0.4,0.2,0.6,0.4c0.3,0.3,0.6,0.6,0.8,0.9l1.2,2h-1.2l-1-1.5
	c-0.3-0.4-0.5-0.8-0.7-1c-0.1-0.2-0.3-0.3-0.5-0.5c-0.1-0.1-0.3-0.1-0.4-0.2h-1.6v3.2L166.2,17.5z M167.1,13.5h2c0.3,0,0.7,0,1-0.1
	c0.2-0.1,0.4-0.2,0.6-0.4c0.1-0.2,0.2-0.4,0.2-0.6c0-0.3-0.1-0.6-0.4-0.8c-0.3-0.2-0.8-0.4-1.2-0.3h-2.3L167.1,13.5z"/>
<path class="st5" d="M176.8,15.8l0.9,0.1c-0.1,0.5-0.4,0.9-0.8,1.2c-0.4,0.3-1,0.5-1.5,0.4c-0.7,0-1.3-0.2-1.8-0.7
	c-0.5-0.5-0.7-1.3-0.7-2c0-0.7,0.2-1.4,0.7-2c0.4-0.5,1.1-0.7,1.7-0.7c0.6,0,1.3,0.2,1.7,0.7c0.5,0.6,0.7,1.3,0.7,2v0.2h-3.9
	c0,0.5,0.2,0.9,0.5,1.3c0.3,0.3,0.7,0.5,1.1,0.5c0.3,0,0.6-0.1,0.8-0.2C176.5,16.4,176.7,16.1,176.8,15.8z M173.9,14.4h2.9
	c0-0.4-0.1-0.7-0.3-1c-0.3-0.3-0.7-0.5-1.1-0.5c-0.4,0-0.7,0.1-1,0.4C174.1,13.6,173.9,14,173.9,14.4z"/>
<path class="st5" d="M182.2,16.8c-0.3,0.2-0.6,0.4-0.9,0.6c-0.3,0.1-0.7,0.2-1,0.2c-0.5,0-0.9-0.1-1.3-0.4c-0.3-0.3-0.5-0.7-0.5-1.1
	c0-0.5,0.2-0.9,0.6-1.2c0.2-0.1,0.4-0.2,0.6-0.3c0.3-0.1,0.5-0.1,0.8-0.1c0.5,0,1.1-0.2,1.6-0.3v-0.2c0-0.3-0.1-0.6-0.2-0.8
	c-0.3-0.2-0.6-0.3-1-0.3c-0.3,0-0.6,0.1-0.9,0.2c-0.2,0.2-0.4,0.5-0.4,0.8l-0.9-0.1c0.1-0.3,0.2-0.6,0.4-0.9
	c0.2-0.2,0.5-0.4,0.8-0.5c0.4-0.1,0.8-0.2,1.2-0.2c0.4,0,0.7,0,1.1,0.1c0.2,0.1,0.4,0.2,0.6,0.4c0.1,0.2,0.2,0.4,0.3,0.6
	c0,0.3,0,0.5,0,0.8v1.2c0,0.5,0,1,0,1.5c0,0.2,0.1,0.4,0.2,0.6h-0.9C182.2,17.3,182.2,17,182.2,16.8z M182.1,14.8
	c-0.5,0.2-0.9,0.3-1.4,0.3c-0.3,0-0.5,0.1-0.8,0.2c-0.4,0.2-0.6,0.6-0.4,1c0,0.1,0.1,0.2,0.2,0.3c0.2,0.2,0.5,0.3,0.8,0.2
	c0.3,0,0.6-0.1,0.9-0.2c0.3-0.1,0.5-0.4,0.6-0.6c0.1-0.3,0.2-0.6,0.1-0.9L182.1,14.8z"/>
<path class="st5" d="M187.8,17.5v-0.7c-0.3,0.5-0.9,0.8-1.4,0.8c-0.4,0-0.8-0.1-1.1-0.4c-0.4-0.2-0.6-0.6-0.8-1
	c-0.2-0.4-0.3-0.9-0.3-1.4c0-0.5,0.1-1,0.3-1.4c0.1-0.4,0.4-0.8,0.8-1c0.3-0.2,0.7-0.3,1.1-0.3c0.6,0,1.1,0.2,1.4,0.7v-2.5h0.9v7.2
	H187.8z M185,14.9c0,0.5,0.1,1.1,0.4,1.5c0.2,0.3,0.6,0.5,1,0.5c0.4,0,0.8-0.2,1-0.5c0.3-0.4,0.4-0.9,0.4-1.4c0-0.6-0.1-1.1-0.4-1.6
	c-0.2-0.3-0.6-0.5-1-0.5c-0.4,0-0.8,0.2-1,0.5C185.1,13.8,185,14.3,185,14.9z"/>
<path class="st6" d="M26.7,17.5l-1.9-7.2h1l1.1,4.7c0.1,0.5,0.2,1,0.3,1.5c0.2-0.8,0.3-1.2,0.3-1.3l1.4-4.8H30l1,3.6
	c0.2,0.8,0.4,1.7,0.6,2.5c0.1-0.5,0.2-1,0.4-1.6l1.1-4.6h1l-2,7.2h-0.9L29.7,12c-0.1-0.4-0.2-0.7-0.2-0.8c-0.1,0.3-0.1,0.6-0.2,0.8
	l-1.5,5.5H26.7z"/>
<path class="st6" d="M34.6,17.5v-5.2h0.8v0.8c0.1-0.3,0.3-0.5,0.6-0.7c0.2-0.1,0.4-0.2,0.6-0.2c0.3,0,0.6,0.1,0.9,0.3l-0.3,0.8
	c-0.2-0.1-0.4-0.2-0.7-0.2c-0.2,0-0.4,0.1-0.5,0.2c-0.2,0.1-0.3,0.3-0.3,0.5c-0.1,0.3-0.2,0.7-0.2,1v2.7L34.6,17.5z"/>
<path class="st6" d="M38,11.3v-1h0.9v1H38z M38,17.5v-5.2h0.9v5.2H38z"/>
<path class="st6" d="M42.1,16.7l0.1,0.8c-0.2,0-0.4,0.1-0.7,0.1c-0.3,0-0.5,0-0.8-0.1c-0.2-0.1-0.3-0.2-0.4-0.4
	c-0.1-0.3-0.1-0.7-0.1-1v-3h-0.7v-0.7h0.7V11l0.9-0.5v1.8h0.9V13h-0.9v3c0,0.2,0,0.3,0,0.5c0,0.1,0.1,0.1,0.2,0.2
	c0.1,0.1,0.2,0.1,0.3,0.1L42.1,16.7z"/>
<path class="st6" d="M46.5,15.8l0.9,0.1c-0.1,0.5-0.4,0.9-0.8,1.2c-1,0.7-2.4,0.6-3.3-0.3c-0.5-0.5-0.7-1.3-0.7-2
	c0-0.7,0.2-1.4,0.7-2c0.5-0.5,1.1-0.7,1.8-0.7c0.6,0,1.3,0.2,1.7,0.7c0.5,0.6,0.7,1.3,0.7,2v0.2h-3.9c0,0.5,0.2,0.9,0.5,1.3
	c0.3,0.3,0.7,0.5,1.1,0.5c0.3,0,0.6-0.1,0.8-0.2C46.2,16.4,46.4,16.1,46.5,15.8z M43.6,14.4h2.9c0-0.4-0.1-0.7-0.3-1
	c-0.3-0.3-0.7-0.5-1.1-0.5c-0.4,0-0.7,0.1-1,0.4C43.8,13.6,43.6,14,43.6,14.4z"/>
<rect x="108.1" y="136.2" class="st2" width="1.2" height="21.3"/>
<rect x="28.2" y="132.8" class="st2" width="1.1" height="24.8"/>
<polygon class="st2" points="108.7,132.6 106.1,138 111.3,138 "/>
<polygon class="st7" points="190.2,132.6 187.6,138 192.8,138 "/>
<rect x="28.2" y="157.5" class="st2" width="81.1" height="1.1"/>
<g class="st4">
	<rect x="189.3" y="139.1" class="st2" width="1.1" height="1.7"/>
	<path class="st2" d="M190.4,153.5h-1.1v-3.4h1.1V153.5z M190.4,147.2h-1.1v-3.4h1.1V147.2z"/>
	<polygon class="st2" points="190.4,158.7 188.1,158.7 188.1,157.5 189.3,157.5 189.3,156.4 190.4,156.4 	"/>
	<path class="st2" d="M185.2,158.7h-3.6v-1.1h3.6V158.7z M178.6,158.7H175v-1.1h3.6L178.6,158.7z M172,158.7h-3.6v-1.1h3.6V158.7z
		 M165.4,158.7h-3.6v-1.1h3.6V158.7z M158.8,158.7h-3.6v-1.1h3.6V158.7z M152.2,158.7h-3.6v-1.1h3.6V158.7z M145.7,158.7h-3.6v-1.1
		h3.6V158.7z M139.1,158.7h-3.6v-1.1h3.6V158.7z M132.5,158.7h-3.6v-1.1h3.6V158.7z M125.9,158.7h-3.6v-1.1h3.6V158.7z M119.3,158.7
		h-3.6v-1.1h3.6V158.7z"/>
	<rect x="111" y="157.5" class="st2" width="1.7" height="1.1"/>
</g>
<path class="st8" d="M84.8,171.9v-7.2H88c0.5,0,1,0,1.4,0.2c0.3,0.1,0.6,0.4,0.8,0.7c0.2,0.3,0.3,0.7,0.3,1.1c0,0.5-0.2,0.9-0.6,1.3
	c-0.4,0.4-1,0.6-1.5,0.7c0.2,0.1,0.4,0.2,0.6,0.4c0.3,0.3,0.6,0.6,0.8,0.9l1.2,2h-1.2l-1-1.5c-0.3-0.4-0.5-0.8-0.7-1
	c-0.1-0.2-0.3-0.3-0.5-0.5c-0.1-0.1-0.3-0.2-0.4-0.2c-0.2,0-0.4,0-0.5,0h-1.1v3.2L84.8,171.9z M85.8,167.9h2c0.3,0,0.7,0,1-0.1
	c0.2-0.1,0.4-0.2,0.6-0.4c0.1-0.2,0.2-0.4,0.2-0.6c0-0.3-0.1-0.6-0.4-0.8c-0.3-0.3-0.7-0.4-1.2-0.3h-2.3L85.8,167.9z"/>
<path class="st8" d="M95.4,170.3l0.9,0.1c-0.1,0.5-0.4,0.9-0.8,1.2c-1,0.7-2.4,0.6-3.3-0.3c-0.5-0.6-0.7-1.3-0.7-2
	c0-0.7,0.2-1.4,0.7-2c0.5-0.5,1.1-0.7,1.8-0.7c0.6,0,1.3,0.2,1.7,0.7c0.5,0.6,0.7,1.3,0.7,2v0.2h-3.9c0,0.5,0.2,0.9,0.5,1.3
	c0.3,0.3,0.7,0.5,1.1,0.4c0.3,0,0.6-0.1,0.8-0.2C95.1,170.9,95.3,170.6,95.4,170.3z M92.5,168.8h2.9c0-0.4-0.1-0.7-0.3-1
	c-0.3-0.3-0.7-0.5-1.1-0.5c-0.4,0-0.7,0.1-1,0.4C92.7,168,92.5,168.4,92.5,168.8z"/>
<path class="st8" d="M97.4,173.9v-7.2h0.8v0.7c0.2-0.2,0.4-0.4,0.6-0.6c0.3-0.1,0.6-0.2,0.9-0.2c0.4,0,0.8,0.1,1.2,0.3
	c0.3,0.3,0.6,0.6,0.8,1c0.4,0.9,0.4,1.9,0,2.8c-0.3,0.8-1.1,1.3-2,1.3c-0.3,0-0.5-0.1-0.8-0.2c-0.2-0.1-0.4-0.3-0.6-0.5v2.6
	L97.4,173.9z M98.2,169.4c0,0.5,0.1,1,0.4,1.5c0.2,0.3,0.6,0.5,1,0.5c0.4,0,0.8-0.2,1-0.5c0.3-0.4,0.5-1,0.4-1.5
	c0-0.5-0.1-1-0.4-1.5c-0.4-0.6-1.2-0.7-1.7-0.3c-0.1,0.1-0.2,0.2-0.3,0.3C98.3,168.3,98.2,168.8,98.2,169.4z"/>
<path class="st8" d="M103,171.9v-7.2h0.9v7.2H103z"/>
<path class="st8" d="M105.2,165.8v-1h0.9v1H105.2z M105.2,171.9v-5.2h0.9v5.2H105.2z"/>
<path class="st8" d="M110.8,170l0.9,0.1c-0.1,0.5-0.3,1-0.7,1.4c-0.4,0.3-0.9,0.5-1.4,0.5c-0.6,0-1.3-0.2-1.7-0.7
	c-0.5-0.6-0.7-1.3-0.6-2c0-0.5,0.1-1,0.3-1.5c0.2-0.4,0.5-0.7,0.8-0.9c0.4-0.2,0.8-0.3,1.2-0.3c0.5,0,1,0.1,1.4,0.4
	c0.4,0.3,0.6,0.7,0.7,1.2l-0.8,0.1c-0.1-0.3-0.2-0.6-0.4-0.8c-0.2-0.2-0.5-0.3-0.8-0.3c-0.4,0-0.8,0.2-1.1,0.5
	c-0.3,0.4-0.5,1-0.4,1.5c-0.1,0.5,0.1,1.1,0.4,1.5c0.2,0.3,0.6,0.5,1,0.5c0.3,0,0.6-0.1,0.9-0.3C110.6,170.7,110.8,170.4,110.8,170z
	"/>
<path class="st8" d="M115.8,171.3c-0.3,0.2-0.6,0.4-0.9,0.6c-0.3,0.1-0.7,0.2-1,0.2c-0.5,0-0.9-0.1-1.3-0.4
	c-0.3-0.3-0.5-0.7-0.5-1.1c0-0.2,0.1-0.5,0.2-0.7c0.1-0.2,0.3-0.4,0.4-0.5c0.2-0.1,0.4-0.2,0.6-0.3c0.3-0.1,0.5-0.1,0.8-0.1
	c0.5,0,1.1-0.1,1.6-0.3v-0.2c0-0.3-0.1-0.6-0.2-0.8c-0.3-0.2-0.6-0.3-1-0.3c-0.3,0-0.6,0.1-0.9,0.2c-0.2,0.2-0.4,0.5-0.4,0.8
	l-0.9-0.1c0.1-0.3,0.2-0.6,0.4-0.9c0.2-0.2,0.5-0.4,0.8-0.5c0.4-0.1,0.8-0.2,1.2-0.2c0.4,0,0.7,0,1.1,0.1c0.2,0.1,0.4,0.2,0.6,0.4
	c0.1,0.2,0.2,0.4,0.3,0.6c0,0.3,0,0.5,0,0.8v1.2c0,0.5,0,1,0.1,1.6c0,0.2,0.1,0.4,0.2,0.6H116C115.9,171.7,115.8,171.5,115.8,171.3z
	 M115.8,169.3c-0.5,0.2-0.9,0.3-1.4,0.3c-0.3,0-0.5,0.1-0.8,0.2c-0.1,0.1-0.3,0.2-0.3,0.3c-0.1,0.1-0.1,0.3-0.1,0.4
	c0,0.2,0.1,0.4,0.3,0.6c0.2,0.2,0.5,0.3,0.8,0.2c0.3,0,0.6-0.1,0.9-0.2c0.3-0.1,0.5-0.3,0.6-0.6c0.1-0.3,0.2-0.6,0.2-0.9
	L115.8,169.3z"/>
<path class="st8" d="M119.9,171.1l0.1,0.8c-0.2,0.1-0.4,0.1-0.7,0.1c-0.3,0-0.5,0-0.7-0.1c-0.2-0.1-0.3-0.2-0.4-0.4
	c-0.1-0.3-0.1-0.7-0.1-1v-3h-0.7v-0.7h0.7v-1.3l0.8-0.5v1.8h0.9v0.7H119v3c0,0.2,0,0.3,0,0.5c0,0.1,0.1,0.1,0.2,0.2
	c0.1,0.1,0.2,0.1,0.3,0.1C119.6,171.2,119.8,171.2,119.9,171.1z"/>
<path class="st8" d="M120.8,165.8v-1h0.9v1H120.8z M120.8,171.9v-5.2h0.9v5.2H120.8z"/>
<path class="st8" d="M122.7,169.3c-0.1-0.8,0.2-1.6,0.8-2.1c0.5-0.4,1-0.6,1.6-0.6c0.7,0,1.3,0.2,1.8,0.7c0.5,0.5,0.7,1.2,0.7,1.9
	c0,0.5-0.1,1.1-0.3,1.6c-0.2,0.4-0.5,0.7-0.9,0.9c-0.4,0.2-0.8,0.3-1.2,0.3c-0.7,0-1.3-0.2-1.8-0.7
	C122.9,170.8,122.6,170.1,122.7,169.3z M123.6,169.3c0,0.5,0.1,1.1,0.4,1.5c0.5,0.6,1.5,0.7,2.1,0.1l0.1-0.1c0.3-0.4,0.5-1,0.4-1.5
	c0-0.5-0.1-1-0.4-1.5c-0.5-0.6-1.4-0.7-2-0.1c-0.1,0-0.1,0.1-0.1,0.1C123.7,168.3,123.5,168.8,123.6,169.3z"/>
<path class="st8" d="M128.6,171.9v-5.2h0.8v0.7c0.4-0.6,1-0.9,1.6-0.9c0.3,0,0.6,0.1,0.9,0.2c0.2,0.1,0.4,0.2,0.6,0.4
	c0.1,0.2,0.2,0.4,0.3,0.6c0,0.3,0.1,0.6,0.1,0.9v3.2h-0.9v-3.1c0-0.3,0-0.5-0.1-0.8c-0.1-0.2-0.2-0.3-0.4-0.4
	c-0.2-0.1-0.4-0.2-0.6-0.2c-0.4,0-0.7,0.1-1,0.4c-0.3,0.4-0.5,0.9-0.4,1.4v2.8L128.6,171.9z"/>
<circle class="st9" cx="153.1" cy="80.5" r="1.4"/>
<circle class="st9" cx="148.4" cy="80.5" r="1.4"/>
<circle class="st9" cx="143.8" cy="80.5" r="1.4"/>
<path d="M34.5,88.2c0.2-1.7,0.2-2,1.4-1.7h0.3c1,0,2-0.1,3-0.5c1.6-0.8,2.6-2,1-1.7c-3.7,0.8-3.9-0.5-3.9-0.5
	c3.9-5.8,5.5-13.1,4.1-14.9c-3.8-4.8-10.4-2.5-10.5-2.5l0,0c-0.8-0.2-1.6-0.2-2.5-0.2c-1.4-0.1-2.8,0.3-3.9,1.2
	c0,0-11.8-4.8-11.3,6.1c0.1,2.3,3.4,17.7,7.2,13c1.4-1.7,2.8-3.1,2.8-3.1c0.7,0.5,1.5,0.7,2.3,0.6h0.1c0,0.2,0,0.4,0,0.7
	c-1,1.2-0.7,1.3-2.7,1.7s-0.8,1.2-0.1,1.3c1.7,0.5,3.5,0,4.6-1.5l-0.1,0.2c0.4,0.3,0.4,2.2,0.4,3.6c0,1.2,0.1,2.3,0.4,3.5
	c0.3,0.8,0.6,2.7,3.2,2.2C32.7,95.2,34.4,94.5,34.5,88.2"/>
<path class="st1" d="M29.6,96.1c-1.3,0-2.3-0.9-2.5-2.2c0-0.1-0.1-0.2-0.1-0.2c-0.3-1.2-0.5-2.4-0.5-3.6v-0.8c0-0.8-0.1-1.7-0.2-2.5
	c-1.1,1.3-2.9,1.7-4.5,1.2c-0.4-0.1-1.2-0.4-1.2-1s0.8-0.7,1.3-0.8c1.5-0.3,1.6-0.4,2.1-1l0.4-0.5v-0.3c-0.7,0-1.4-0.2-2.1-0.5
	c-0.4,0.4-1.5,1.6-2.6,3c-0.5,0.7-1.3,1.1-2.2,0.9c-3.1-1-5.4-12.1-5.5-14.1c-0.1-3,0.6-5.2,2.3-6.4c3.1-2.2,8.3-0.4,9.2,0
	c1.1-0.8,2.5-1.2,3.9-1.2c0.8,0,1.7,0.1,2.5,0.2l0,0c2.1-0.6,7.4-1.5,10.7,2.6c1.5,1.9-0.1,9.2-4,15c0.2,0.2,0.9,0.8,3.6,0.2
	c0.2,0,1-0.2,1.1,0.3s-1.1,1.5-1.9,1.9c-1,0.4-2.1,0.6-3.2,0.5H36c-0.4-0.1-0.8-0.1-0.9-0.1c-0.2,0.4-0.3,0.8-0.3,1.2v0.3
	c0,0,0,0.1,0,0.1c-0.2,6.3-1.9,7.1-4.2,7.6C30.3,96.1,30,96.1,29.6,96.1z M26.7,86.4c0.3,0.9,0.4,1.9,0.4,2.9v0.8
	c0,1.2,0.1,2.3,0.4,3.4l0.1,0.2c0.3,0.9,0.7,2.2,2.9,1.8c1.9-0.4,3.7-0.8,3.8-7.2c0,0,0-0.1,0-0.1v-0.3c0.1-0.9,0.2-1.3,0.5-1.6
	s0.6-0.2,1.2,0h0.3c1,0,2-0.1,3-0.5c0.7-0.3,1.2-0.7,1.6-1.2c-0.2,0-0.3,0-0.5,0c-3.8,0.8-4.2-0.5-4.2-0.7c0-0.1,0-0.1,0-0.2
	c3.9-5.7,5.6-12.9,4.2-14.6c-3.1-3.9-8.2-3-10.2-2.5H30c-0.8-0.2-1.6-0.2-2.4-0.2h-0.1c-1.3-0.1-2.7,0.3-3.7,1.1c-0.1,0-0.2,0-0.2,0
	c0,0-5.7-2.3-8.8-0.1c-1.5,1.1-2.2,3.1-2.1,6c0.1,2.1,2.4,12.7,5.1,13.6c0.5,0.2,1.1-0.1,1.6-0.7c1.4-1.7,2.8-3.1,2.8-3.2
	c0.1-0.1,0.2-0.1,0.3,0c0.6,0.4,1.4,0.6,2.1,0.6h0.1c0.1,0,0.1,0,0.2,0.1C25,83.9,25,84,25,84c0,0.2,0,0.4,0,0.6
	c0,0.1,0,0.1-0.1,0.2c-0.2,0.2-0.3,0.4-0.5,0.6c-0.6,0.7-0.8,0.9-2.4,1.2c-0.8,0.2-0.9,0.4-0.9,0.4c0.2,0.2,0.5,0.4,0.9,0.5
	c1.6,0.5,3.3,0,4.3-1.4c0.1-0.1,0.2-0.2,0.3-0.1c0.1,0.1,0.1,0.2,0.1,0.3L26.7,86.4z"/>
<path class="st10" d="M29.7,96c-1.3,0-2.3-0.9-2.5-2.2L27,93.6c-0.3-1.2-0.4-2.4-0.2-3.6c0.1-1.1-0.1-2.2-0.4-3.2
	c-0.8,0.9-1.9,1.3-3.1,1.3c-0.5,0-1-0.1-1.4-0.2c-0.5-0.1-1.3-0.5-1.3-1s0.8-0.8,1.3-0.9c1.5-0.3,1.6-0.4,2-1
	c0.1-0.1,0.2-0.3,0.4-0.5v-0.2h-0.1c-0.7,0-1.4-0.2-2-0.6c-0.4,0.4-1.5,1.6-2.6,3c-0.4,0.6-1,0.9-1.7,1c-3.6,0-5.9-12.5-6-14.2
	c-0.1-2.6,0.4-4.6,1.6-5.8c1.2-1.2,2.9-1.8,4.6-1.7c1.8,0,3.6,0.4,5.3,1c1.1-0.8,2.4-1.2,3.8-1.2h0.1c0.8,0,1.6,0.1,2.4,0.2
	c1.2-0.4,2.5-0.6,3.8-0.6c2.7-0.1,5.4,1.1,7.1,3.2c1.5,1.9-0.1,9.2-4,15c0.1,0.1,0.5,0.4,1.5,0.4c0.7,0,1.3-0.1,2-0.2
	c0.2,0,0.3-0.1,0.5-0.1c0.5,0,0.6,0.2,0.7,0.4c0.2,0.7-1.2,1.5-2,1.9c-0.9,0.4-1.9,0.6-2.9,0.5H36c-0.2,0-0.3-0.1-0.5-0.1
	c-0.3,0-0.4,0.1-0.5,1.3c0,0.3,0,0.6-0.1,0.8l-0.2,0.7c0,0.4-0.1,0.9-0.2,1.3c-0.1,0.4-0.2,0.8-0.2,1.2c-0.1,2.1-1.6,3.8-3.7,4
	C30.3,96,30,96,29.7,96z"/>
<path class="st1" d="M33.7,65.9c2.6-0.1,5.2,1.1,6.8,3.1c1.4,1.8-0.2,9.1-4.1,14.9c0,0,0.2,0.7,1.9,0.7c0.7,0,1.4-0.1,2.1-0.2l0,0
	c0.1,0,0.3,0,0.5,0c0.9,0,0,1.1-1.4,1.7c-0.9,0.4-1.8,0.5-2.8,0.5H36c-0.2,0-0.3-0.1-0.5-0.1c-0.8,0-0.7,0.7-0.9,2.3l-0.2,0.6
	c-0.1,0.8-0.2,1.7-0.4,2.5c-0.1,1.9-1.6,3.5-3.5,3.7c-0.3,0.1-0.6,0.1-0.9,0.1c-1.8,0-2.1-1.5-2.3-2.3c-0.3-1.1-0.4-2.3-0.2-3.5
	c0-1.6-0.2-3.3-0.6-3.6l0.1-0.2c-0.7,1.1-1.9,1.7-3.2,1.7c-0.5,0-0.9-0.1-1.4-0.2c-0.8-0.2-2-0.9,0.1-1.3s1.7-0.6,2.7-1.7
	c0-0.2,0-0.4,0-0.7h-0.4c-0.7,0-1.4-0.2-2-0.6c0,0-1.4,1.5-2.8,3.2c-0.3,0.5-0.9,0.8-1.5,0.9c-3.2,0-5.6-11.9-5.8-13.9
	c-0.2-5.9,2.9-7.2,6-7.2c1.8,0.1,3.6,0.4,5.3,1.1c1.1-0.8,2.4-1.2,3.8-1.2h0.1c0.8,0,1.6,0.1,2.5,0.2l0,0
	C31.1,66,32.4,65.8,33.7,65.9 M33.7,65.3c-1.3,0-2.6,0.2-3.8,0.6c-0.8-0.1-1.6-0.2-2.4-0.2h-0.1c-1.4,0-2.7,0.3-3.8,1.1
	c-1.7-0.6-3.4-1-5.2-1c-1.8-0.1-3.5,0.5-4.8,1.8c-1.3,1.3-1.8,3.3-1.7,6c0.1,1,2.3,14.5,6.4,14.5c0.8,0,1.5-0.4,1.9-1.1
	c1-1.2,2-2.3,2.4-2.8c0.5,0.3,1,0.4,1.5,0.4l-0.2,0.2c-0.4,0.5-0.5,0.6-1.9,0.9c-0.4,0.1-1.6,0.3-1.6,1.2s1.3,1.3,1.5,1.3
	c0.5,0.1,1,0.2,1.5,0.2c1.1,0,2.1-0.4,3-1.1c0.2,0.9,0.3,1.8,0.2,2.7c-0.2,1.2-0.1,2.5,0.2,3.7l0.1,0.3c0.2,1.4,1.4,2.4,2.8,2.4
	c0.3,0,0.7,0,1-0.1c2.2-0.3,3.8-2,3.9-4.2c0-0.4,0.1-0.8,0.2-1.2c0.1-0.4,0.2-0.9,0.2-1.3l0.2-0.5c0,0,0-0.1,0-0.1
	c0-0.3,0.1-0.6,0.1-0.8c0-0.3,0.1-0.7,0.2-1l0,0c0.1,0,0.3,0,0.4,0h0.8c1,0,2-0.2,3-0.6c0.9-0.4,2.3-1.3,2.1-2.2
	c-0.1-0.4-0.5-0.7-1-0.6c-0.2,0-0.4,0-0.6,0l0,0c-0.6,0.1-1.3,0.2-1.9,0.2c-0.4,0-0.8,0-1.2-0.2c3.6-5.6,5.5-13,3.8-15.2
	C39.2,66.4,36.5,65.1,33.7,65.3L33.7,65.3z"/>
<path class="st1" d="M29.9,96c-1.4,0-2.7-1-3.1-2.4c-0.4-0.9-0.5-5-0.4-8.2c0-0.1,0.1-0.2,0.2-0.2l0,0c0.1,0,0.2,0.1,0.2,0.3
	c0,0,0,0,0,0l0,0c-0.1,4,0,7.3,0.4,8c0.3,1.4,1.8,2.3,3.2,2h0.3c1.7-0.1,3-1.5,3.1-3.1l0.8-6.4c-0.1-0.1,0-0.3,0.1-0.3c0,0,0,0,0,0
	c0.1,0,0.1,0,0.2,0c0.1,0,0.2,0.1,0.2,0.3l-0.8,6.4c-0.1,1.9-1.6,3.4-3.5,3.6h-0.2C30.5,95.9,30.2,96,29.9,96z M18,87.6
	c-0.2,0-0.3,0-0.5-0.1c-3.1-1-5.4-12.1-5.5-14.1c-0.2-3,0.6-5.2,2.3-6.4c3.3-2.4,9.1-0.1,9.3,0c0.1,0,0.2,0.2,0.1,0.3c0,0,0,0,0,0
	l0,0c0,0.1-0.2,0.2-0.3,0.2l0,0c-0.1,0-5.7-2.3-8.9-0.1c-1.5,1.1-2.2,3.1-2.1,6c0.1,2.1,2.4,12.7,5.1,13.6c0.5,0.2,1.1-0.1,1.6-0.7
	c1.5-1.7,2.7-3,2.7-3c0.1-0.1,0.3-0.1,0.4,0l0,0c0.1,0.1,0.1,0.2,0,0.3c0,0,0,0,0,0c0,0-1.2,1.3-2.7,3C19.3,87.3,18.7,87.6,18,87.6z
	 M36.4,84c0,0-0.1,0-0.1,0c-0.1-0.1-0.1-0.2-0.1-0.3c0,0,0,0,0,0l0,0c3.8-5.7,5.5-12.8,4.1-14.5c-3.6-4.6-9.7-2.6-10.2-2.4l0,0
	c-0.1,0-0.3,0-0.3-0.1c-0.1-0.1,0-0.3,0.1-0.3h0.1c0.8-0.3,7.1-2.2,10.8,2.6c1.5,1.9-0.1,9.2-4.1,15.1C36.6,84,36.5,84,36.4,84z"/>
<path class="st1" d="M36.6,86.7c-0.5,0-1-0.1-1.5-0.3c-0.2-0.1-0.4-0.3-0.4-0.6c-0.1-1.6,0.8-1.9,1.3-2h0.2
	c-0.1-0.2-0.2-0.4-0.4-0.6c-0.4-0.4-0.7-1-0.9-1.5c-0.1-0.3-0.3-0.5-0.4-0.8c-1-1.8-2.8-5.1-1.6-6.8c0.6-0.8,1.8-1.1,3.6-0.9
	c-0.5-1.5-1.3-2.9-2.4-4c-1.7-1.8-4-2.8-6.4-2.8h-0.1c-1.5-0.1-3.1,0.5-4.2,1.5c-2.4,2.4-2.4,6.8-2.4,6.9c0,0.1-0.1,0.2-0.2,0.2
	c0,0,0,0,0,0l0,0c-0.1,0-0.3-0.1-0.3-0.2c0,0,0,0,0,0c0-0.2-0.1-4.7,2.5-7.2c1.2-1.2,2.9-1.9,4.7-1.8c7,0.1,9.4,7,9.4,7.6
	c0,0.2-0.1,0.3-0.3,0.3c-1.8-0.3-3,0-3.4,0.7c-1,1.4,0.8,4.7,1.7,6.2c0.2,0.3,0.3,0.6,0.5,0.9c0.2,0.5,0.5,1,0.9,1.4
	c0.2,0.3,0.4,0.6,0.5,0.9l0,0c0.1,0.2,0.7,0.9,3.6,0.3c0.2,0,1-0.2,1.1,0.3c0.2,0.6-1.1,1.5-1.9,1.9C38.5,86.5,37.6,86.7,36.6,86.7z
	 M36.4,84.2c-0.1,0-0.2,0.1-0.3,0.1c-0.4,0.1-1,0.3-0.9,1.5c0,0,0,0.1,0.1,0.2c1.3,0.3,2.7,0.3,3.9-0.3c0.7-0.2,1.3-0.7,1.7-1.3
	c-0.2,0-0.3,0-0.5,0.1c-1.8,0.4-3.1,0.3-3.8-0.1L36.4,84.2z"/>
<path class="st1" d="M25.5,84.2c0.2,0,0.3,0,0.5,0.1c0.7,0.3,0.9,1.1,0.6,1.8c-0.7,1.1-1.9,1.7-3.2,1.7c-0.5,0-0.9-0.1-1.3-0.2
	c-0.8-0.2-2-0.9,0.1-1.3s1.7-0.6,2.7-1.7l0,0C24.8,84.3,25.1,84.2,25.5,84.2 M25.4,83.6c-0.4,0-0.9,0.2-1.2,0.6l0,0
	c-0.2,0.2-0.4,0.4-0.5,0.6c-0.4,0.5-0.5,0.6-1.8,0.9c-0.4,0.1-1.6,0.3-1.6,1.2s1.3,1.3,1.5,1.3c0.5,0.1,1,0.2,1.5,0.3
	c1.5,0,2.9-0.7,3.7-1.9c0.3-0.4,0.3-1,0.2-1.5c-0.1-0.5-0.5-1-1-1.2C26,83.7,25.7,83.6,25.4,83.6L25.4,83.6z"/>
<path class="st1" d="M24.6,84.8L24.6,84.8c-0.1,0-0.2-0.1-0.2-0.3c0,0,0,0,0,0l0,0v-0.4c-0.2,0-0.5,0-0.7-0.1
	c-2.3-0.4-3.9-2.6-3.5-5c0,0,0,0,0,0l0,0c0.2-1.4,0.2-2.7,0.1-4.1c0-0.6,1.9-1.5,3.2-1.6c1.2-0.3,2.3,0.4,2.6,1.6v0.2
	c0.7,2.4,0.4,5-0.8,7.2c-0.3,0.7-0.5,1.4-0.5,2.2C24.9,84.7,24.8,84.8,24.6,84.8z M20.8,75c0.1,1.4,0.1,2.8-0.1,4.2
	c-0.4,2,1,4,3,4.4c0.2,0,0.5,0.1,0.7,0.1c0.1-0.5,0.3-1.1,0.6-1.6c1.2-2.1,1.4-4.6,0.7-6.9c-0.1-0.7-0.6-1.3-1.4-1.4
	C23.1,73.8,21.8,74.2,20.8,75z"/>
<path class="st1" d="M23.5,74.9c0.1,0.3,0.3,0.5,0.6,0.6c0.3,0,0.6-0.1,0.7-0.4c0-0.2-0.3-0.3-0.7-0.4S23.5,74.7,23.5,74.9z"/>
<path class="st1" d="M35.2,74.5c-0.1,0.3-0.3,0.5-0.7,0.6c-0.3,0-0.6-0.1-0.7-0.4c0-0.2,0.3-0.3,0.7-0.4S35.2,74.4,35.2,74.5z"/>
<path class="st1" d="M35.8,82.9c0,0-0.1,0-0.1,0c-0.1-0.1-0.1-0.2-0.1-0.3c0.7-1.3,0.9-2.7,0.6-4.1C36,77.9,36,77.3,36,76.7
	c0-0.5,0.1-1,0.2-1.5c0.1-0.6,0.2-1.1,0.1-1.7c0-0.1,0.1-0.3,0.2-0.3c0.1,0,0.3,0.1,0.3,0.2c0,0,0,0,0,0l0,0c0,0.6,0,1.2-0.1,1.8
	c-0.1,0.5-0.1,1-0.2,1.4c0,0.5,0,1.1,0.1,1.6c0.4,1.5,0.1,3.1-0.6,4.5C35.9,82.9,35.8,83,35.8,82.9z"/>
<path d="M115.6,88.2c0.2-1.7,0.2-2,1.4-1.7h0.3c1,0,2-0.1,3-0.5c1.6-0.8,2.6-2,1-1.7c-3.7,0.8-3.9-0.5-3.9-0.5
	c3.9-5.8,5.5-13.1,4.1-14.9c-3.8-4.8-10.4-2.5-10.6-2.5l0,0c-0.8-0.2-1.6-0.2-2.5-0.2c-1.4-0.1-2.8,0.3-3.9,1.2
	c0,0-11.8-4.8-11.3,6.1c0.1,2.3,3.3,17.7,7.2,13c1.4-1.7,2.8-3.1,2.8-3.1c0.7,0.5,1.5,0.7,2.3,0.6h0.1c0,0.2,0,0.4,0,0.7
	c-1,1.2-0.7,1.3-2.7,1.7s-0.8,1.2-0.1,1.3c1.7,0.5,3.5,0,4.6-1.5l-0.1,0.2c0.4,0.3,0.4,2.2,0.4,3.6c0,1.2,0.1,2.3,0.4,3.5
	c0.3,0.8,0.6,2.7,3.2,2.2C113.6,95.2,115.3,94.5,115.6,88.2"/>
<path class="st1" d="M110.7,96.1c-1.3,0-2.3-0.9-2.5-2.2c0-0.1-0.1-0.2-0.1-0.2c-0.3-1.2-0.5-2.4-0.4-3.6v-0.8
	c0-0.8-0.1-1.7-0.2-2.5c-1.1,1.3-2.9,1.7-4.5,1.2c-0.4-0.1-1.2-0.4-1.2-1s0.8-0.7,1.3-0.8c1.5-0.3,1.6-0.4,2.1-1l0.4-0.5v-0.3
	c-0.7,0-1.4-0.2-2.1-0.5c-0.4,0.4-1.5,1.6-2.6,3c-0.5,0.7-1.3,1.1-2.2,0.9c-3.1-1-5.4-12.1-5.5-14.1c-0.2-3,0.6-5.2,2.3-6.4
	c3.1-2.2,8.3-0.4,9.2,0c1.1-0.8,2.5-1.2,3.9-1.2c0.8,0,1.7,0.1,2.5,0.2l0,0c2.1-0.6,7.4-1.5,10.7,2.6c1.5,1.9-0.1,9.2-4,15
	c0.2,0.2,0.9,0.8,3.6,0.2c0.2,0,1-0.2,1.1,0.3s-1.1,1.5-1.9,1.9c-1,0.4-2.1,0.6-3.2,0.5H117c-0.3-0.1-0.6-0.1-0.9-0.1
	c-0.1,0.1-0.2,0.6-0.3,1.2v0.3c0,0,0,0.1,0,0.1c-0.2,6.3-1.8,7.1-4.2,7.6C111.3,96,111,96.1,110.7,96.1z M107.7,86.4
	c0.3,0.9,0.4,1.9,0.4,2.9v0.8c0,1.2,0.1,2.3,0.4,3.4l0.1,0.2c0.3,0.9,0.7,2.2,2.8,1.8c1.9-0.4,3.7-0.8,3.8-7.2c0,0,0-0.1,0-0.1v-0.3
	c0.1-0.9,0.2-1.3,0.5-1.6s0.6-0.2,1.2,0h0.3c1,0,2-0.1,3-0.5c0.7-0.3,1.2-0.7,1.6-1.2c-0.2,0-0.3,0-0.5,0c-3.8,0.8-4.2-0.5-4.2-0.7
	c0-0.1,0-0.1,0-0.2c3.8-5.7,5.5-12.9,4.1-14.6c-3.1-3.9-8.2-3-10.2-2.5h-0.2c-0.8-0.2-1.6-0.2-2.4-0.2h-0.1
	c-1.3-0.1-2.7,0.3-3.7,1.1c-0.1,0-0.2,0-0.2,0c0,0-5.7-2.3-8.8-0.1c-1.5,1.1-2.2,3.1-2.1,6c0.1,2.1,2.4,12.7,5.1,13.6
	c0.5,0.2,1.1-0.1,1.6-0.7c1.4-1.7,2.8-3.1,2.8-3.2c0.1-0.1,0.2-0.1,0.3,0c0.6,0.4,1.4,0.6,2.2,0.6h0.1c0.1,0,0.1,0,0.2,0.1
	c0,0.1,0.1,0.1,0.1,0.2c0,0.2,0,0.4,0,0.6c0,0.1,0,0.1-0.1,0.2c-0.2,0.2-0.3,0.4-0.4,0.6c-0.6,0.7-0.8,0.9-2.4,1.2
	c-0.8,0.2-0.9,0.4-0.9,0.4c0.2,0.2,0.5,0.4,0.8,0.5c1.6,0.5,3.3,0,4.3-1.4c0.1-0.1,0.2-0.2,0.3-0.1c0.1,0.1,0.1,0.2,0.1,0.3
	L107.7,86.4z"/>
<path class="st10" d="M110.7,96c-1.3,0-2.3-0.9-2.5-2.2l-0.1-0.3c-0.3-1.2-0.4-2.4-0.2-3.6c0.1-1.1-0.1-2.2-0.4-3.2
	c-0.8,0.9-1.9,1.3-3.1,1.3c-0.5,0-1-0.1-1.4-0.2c-0.5-0.1-1.3-0.5-1.3-1s0.8-0.8,1.3-0.9c1.5-0.3,1.6-0.4,2-1
	c0.1-0.1,0.2-0.3,0.4-0.5v-0.2h-0.1c-0.7,0-1.4-0.2-2-0.6c-0.4,0.4-1.5,1.6-2.6,3c-0.4,0.6-1,0.9-1.7,1c-3.6,0-6-12.5-6-14.2
	c-0.1-2.6,0.4-4.6,1.6-5.8c1.2-1.2,2.9-1.8,4.6-1.7c1.8,0,3.6,0.4,5.3,1c1.1-0.8,2.4-1.2,3.8-1.2h0.1c0.8,0,1.6,0.1,2.4,0.2
	c1.2-0.4,2.5-0.6,3.8-0.6c2.7-0.1,5.4,1.1,7.1,3.2c1.5,1.9-0.1,9.2-4,15c0.1,0.1,0.5,0.4,1.5,0.4c0.7,0,1.3-0.1,2-0.2
	c0.2,0,0.3-0.1,0.5-0.1c0.5,0,0.6,0.2,0.7,0.4c0.2,0.7-1.2,1.5-2,1.9c-0.9,0.4-1.9,0.6-2.9,0.5H117c-0.2,0-0.3-0.1-0.5-0.1
	c-0.3,0-0.4,0.1-0.5,1.3c0,0.3,0,0.6-0.1,0.8l-0.2,0.7c0,0.4-0.1,0.9-0.2,1.3c-0.1,0.4-0.2,0.8-0.2,1.2c-0.1,2.1-1.6,3.8-3.7,4
	C111.3,96,111,96,110.7,96z"/>
<path class="st1" d="M114.7,65.9c2.6-0.1,5.2,1.1,6.8,3.1c1.4,1.8-0.2,9.1-4.1,14.9c0,0,0.2,0.7,1.9,0.7c0.7,0,1.4-0.1,2.1-0.2l0,0
	c0.1,0,0.3,0,0.4,0c0.9,0,0,1.1-1.4,1.7c-0.9,0.4-1.8,0.5-2.8,0.5H117c-0.2,0-0.3-0.1-0.5-0.1c-0.8,0-0.7,0.7-0.9,2.3l-0.2,0.6
	c-0.1,0.8-0.2,1.7-0.4,2.5c-0.1,1.9-1.6,3.5-3.5,3.7c-0.3,0.1-0.6,0.1-0.9,0.1c-1.8,0-2.1-1.5-2.3-2.3c-0.3-1.1-0.4-2.3-0.2-3.5
	c0-1.6-0.2-3.3-0.6-3.6l0.1-0.2c-0.7,1.1-1.9,1.7-3.2,1.7c-0.5,0-0.9-0.1-1.3-0.2c-0.8-0.2-2-0.9,0.1-1.3s1.7-0.6,2.7-1.7
	c0-0.2,0-0.4,0-0.7h-0.4c-0.7,0-1.4-0.2-2-0.6c0,0-1.4,1.5-2.8,3.2c-0.3,0.5-0.9,0.8-1.5,0.9c-3.2,0-5.6-11.9-5.8-13.9
	c-0.2-5.9,2.9-7.2,6-7.2c1.8,0.1,3.6,0.4,5.3,1.1c1.1-0.8,2.4-1.2,3.8-1.2h0.1c0.8,0,1.6,0.1,2.4,0.2l0,0
	C112.1,66.1,113.4,65.9,114.7,65.9 M114.7,65.3c-1.3,0-2.6,0.2-3.8,0.6c-0.8-0.1-1.6-0.2-2.4-0.2h-0.1c-1.4,0-2.7,0.3-3.8,1.1
	c-1.7-0.6-3.4-1-5.2-1c-1.8-0.1-3.5,0.5-4.8,1.8c-1.3,1.3-1.8,3.3-1.7,6c0.1,1,2.3,14.5,6.4,14.5c0.8,0,1.5-0.4,1.9-1.1
	c1-1.2,2-2.3,2.4-2.8c0.5,0.3,1,0.4,1.6,0.4l-0.2,0.2c-0.4,0.5-0.5,0.6-1.8,0.9c-0.4,0.1-1.6,0.3-1.6,1.2s1.3,1.3,1.5,1.3
	c0.5,0.1,1,0.2,1.5,0.2c1.1,0,2.2-0.4,3-1.1c0.2,0.9,0.3,1.8,0.2,2.6c-0.2,1.2-0.1,2.5,0.2,3.7l0.1,0.3c0.2,1.4,1.4,2.4,2.8,2.4
	c0.3,0,0.7,0,1-0.1c2.2-0.2,3.8-2,3.9-4.2c0-0.4,0.1-0.8,0.2-1.2c0.1-0.4,0.2-0.8,0.2-1.2l0.2-0.5c0,0,0-0.1,0-0.1
	c0-0.3,0.1-0.6,0.1-0.8c0-0.3,0.1-0.7,0.2-1l0,0c0.1,0,0.3,0,0.4,0h0.8c1,0,2-0.2,3-0.6c0.9-0.4,2.3-1.3,2.1-2.2
	c-0.1-0.4-0.6-0.7-1-0.6c-0.2,0-0.4,0-0.6,0l0,0c-0.6,0.1-1.3,0.2-1.9,0.2c-0.4,0-0.8,0-1.2-0.2c3.6-5.6,5.5-13,3.8-15.2
	C120.2,66.4,117.5,65.2,114.7,65.3L114.7,65.3z"/>
<path class="st1" d="M110.9,96c-1.4,0-2.7-1-3.1-2.4c-0.4-0.9-0.5-5-0.4-8.2c0-0.1,0.1-0.2,0.2-0.2h0.1c0.1,0,0.2,0.1,0.2,0.3
	c0,0,0,0,0,0l0,0c-0.1,4,0,7.3,0.4,8c0.3,1.4,1.8,2.3,3.2,2h0.3c1.7-0.1,3-1.5,3.1-3.1l0.8-6.4c0-0.1,0.1-0.2,0.3-0.2c0,0,0,0,0,0
	l0,0c0.1,0,0.2,0.1,0.2,0.3l-0.8,6.4c-0.1,1.9-1.6,3.4-3.5,3.6h-0.2C111.5,96,111.2,96,110.9,96z M99.1,87.6c-0.2,0-0.3,0-0.5-0.1
	c-3.1-1-5.4-12.1-5.5-14.1c-0.2-3,0.6-5.2,2.3-6.4c3.3-2.4,9.1-0.1,9.3,0c0.1,0,0.2,0.2,0.1,0.3c0,0,0,0,0,0l0,0
	c0,0.1-0.2,0.2-0.3,0.2l0,0c-0.1,0-5.7-2.3-8.8-0.1c-1.5,1.1-2.2,3.1-2.1,6c0.1,2.1,2.4,12.7,5.1,13.6c0.5,0.2,1.1-0.1,1.6-0.7
	c1.4-1.7,2.7-3,2.7-3c0.1-0.1,0.3-0.1,0.3,0l0,0c0.1,0.1,0.1,0.2,0,0.3c0,0,0,0,0,0c0,0-1.2,1.3-2.7,3
	C100.3,87.3,99.7,87.6,99.1,87.6z M117.4,84c0,0-0.1,0-0.1,0c-0.1-0.1-0.1-0.2-0.1-0.3c0,0,0,0,0,0l0,0c3.8-5.7,5.5-12.8,4.1-14.5
	c-3.6-4.6-9.7-2.6-10.2-2.4l0,0c-0.1,0-0.3,0-0.3-0.1c-0.1-0.1,0-0.3,0.1-0.3h0.1c0.8-0.3,7.1-2.2,10.8,2.6
	c1.5,1.9-0.1,9.2-4.1,15.1C117.6,84,117.5,84,117.4,84z"/>
<path class="st1" d="M117.6,86.7c-0.5,0-1-0.1-1.5-0.3c-0.2-0.1-0.4-0.3-0.4-0.6c-0.1-1.6,0.8-1.9,1.3-2h0.2
	c-0.1-0.2-0.2-0.4-0.4-0.6c-0.4-0.4-0.7-1-0.9-1.5c-0.1-0.3-0.3-0.5-0.4-0.8c-1-1.8-2.8-5.1-1.6-6.8c0.6-0.8,1.8-1.1,3.6-0.9
	c-0.5-1.5-1.3-2.9-2.4-4c-1.7-1.8-4-2.8-6.4-2.8c-1.6-0.1-3.2,0.4-4.3,1.5c-2.4,2.4-2.4,6.8-2.4,6.9c0,0.1-0.1,0.2-0.2,0.2
	c0,0,0,0,0,0l0,0c-0.1,0-0.2-0.1-0.2-0.2c0-0.2-0.1-4.7,2.5-7.2c1.2-1.2,2.9-1.9,4.7-1.8c7,0.1,9.4,7,9.4,7.6c0,0.2-0.1,0.3-0.3,0.3
	c-1.8-0.3-3,0-3.4,0.7c-1,1.4,0.8,4.7,1.7,6.2c0.2,0.3,0.3,0.6,0.4,0.9c0.2,0.5,0.5,1,0.9,1.4c0.2,0.3,0.4,0.6,0.5,0.9l0,0
	c0.1,0.2,0.7,0.9,3.6,0.3c0.2,0,1-0.2,1.1,0.3c0.2,0.6-1.1,1.5-1.9,1.9C119.6,86.5,118.6,86.7,117.6,86.7z M117.4,84.2
	c-0.1,0-0.2,0.1-0.3,0.1c-0.4,0.1-1,0.3-0.9,1.5c0,0,0,0.1,0.1,0.2c1.3,0.3,2.7,0.3,3.9-0.3c0.7-0.2,1.3-0.7,1.7-1.3
	c-0.2,0-0.3,0-0.5,0.1c-1.8,0.4-3.1,0.3-3.8-0.1L117.4,84.2z"/>
<path class="st1" d="M106.5,84.2c0.2,0,0.3,0,0.4,0.1c0.7,0.3,0.9,1.1,0.6,1.8c-0.7,1.1-1.9,1.7-3.2,1.7c-0.5,0-0.9-0.1-1.3-0.2
	c-0.8-0.2-2-0.9,0.1-1.3s1.7-0.6,2.7-1.7l0,0C105.8,84.3,106.1,84.2,106.5,84.2 M106.4,83.6c-0.4,0-0.9,0.2-1.2,0.6l0,0
	c-0.2,0.2-0.4,0.4-0.5,0.6c-0.4,0.5-0.5,0.6-1.8,0.9c-0.4,0.1-1.6,0.3-1.6,1.2s1.3,1.3,1.5,1.3c0.5,0.1,1,0.2,1.5,0.3
	c1.5,0,2.9-0.7,3.7-1.9c0.3-0.4,0.4-1,0.2-1.5c-0.1-0.5-0.5-1-1-1.2c-0.2-0.1-0.5-0.2-0.7-0.2L106.4,83.6z"/>
<path class="st1" d="M105.7,84.8L105.7,84.8c-0.1,0-0.2-0.1-0.2-0.3c0,0,0,0,0,0l0,0v-0.4c-0.2,0-0.5,0-0.7-0.1
	c-2.3-0.4-3.9-2.6-3.5-5c0,0,0,0,0,0l0,0c0.2-1.4,0.2-2.8,0.1-4.2c0-0.6,1.9-1.5,3.2-1.6c1.2-0.3,2.4,0.5,2.6,1.7c0,0,0,0,0,0
	c0,0,0,0.1,0,0.1c0.7,2.4,0.4,5-0.8,7.2c-0.3,0.7-0.5,1.4-0.5,2.2C105.9,84.7,105.8,84.8,105.7,84.8L105.7,84.8z M101.8,75
	c0.1,1.4,0.1,2.8-0.1,4.2c-0.4,2,1,4,3,4.4c0.2,0,0.5,0.1,0.7,0.1c0.1-0.5,0.3-1.1,0.5-1.5c1.2-2.1,1.4-4.6,0.7-6.9
	c-0.1-0.7-0.6-1.3-1.4-1.4C104,73.8,102.8,74.2,101.8,75z"/>
<path class="st1" d="M104.5,74.9c0.1,0.3,0.3,0.5,0.7,0.6c0.3,0,0.6-0.1,0.7-0.4c0-0.2-0.3-0.3-0.7-0.4S104.6,74.7,104.5,74.9z"/>
<path class="st1" d="M116.2,74.5c-0.1,0.3-0.3,0.5-0.7,0.6c-0.3,0-0.6-0.1-0.7-0.4c0-0.2,0.3-0.3,0.7-0.4S116.2,74.4,116.2,74.5z"/>
<path class="st1" d="M116.8,82.9c0,0-0.1,0-0.1,0c-0.1-0.1-0.1-0.2-0.1-0.3c0.7-1.3,0.9-2.7,0.6-4.1c-0.1-0.6-0.1-1.1-0.1-1.7
	c0-0.5,0.1-1,0.2-1.5c0.1-0.6,0.2-1.1,0.1-1.7c0-0.1,0.1-0.3,0.2-0.3c0.1,0,0.3,0.1,0.3,0.2c0,0,0,0,0,0l0,0c0,0.6,0,1.2-0.1,1.8
	c-0.1,0.5-0.1,1-0.2,1.4c0,0.5,0,1.1,0.1,1.6c0.4,1.5,0.1,3.1-0.7,4.5C116.9,82.9,116.8,83,116.8,82.9z"/>
<path d="M196.6,88.2c0.2-1.7,0.1-2,1.4-1.7h0.3c1,0,2.1-0.1,3.1-0.5c1.6-0.8,2.6-2,1-1.7c-3.7,0.8-3.9-0.5-3.9-0.5
	c3.9-5.8,5.5-13.1,4.1-14.9c-3.8-4.8-10.4-2.5-10.6-2.5l0,0c-0.8-0.2-1.6-0.2-2.5-0.2c-1.4-0.1-2.8,0.3-3.9,1.2
	c0,0-11.8-4.8-11.3,6.1c0.1,2.3,3.4,17.7,7.2,13c1.4-1.7,2.8-3.1,2.8-3.1c0.7,0.5,1.5,0.7,2.3,0.6h0.1c0,0.2,0,0.4,0,0.7
	c-1,1.2-0.7,1.3-2.7,1.7s-0.8,1.2-0.1,1.3c1.7,0.5,3.5,0,4.6-1.5l-0.1,0.2c0.4,0.3,0.4,2.2,0.4,3.6c0,1.2,0.1,2.3,0.4,3.5
	c0.3,0.8,0.6,2.7,3.2,2.2C194.7,95.2,196.4,94.5,196.6,88.2"/>
<path class="st1" d="M191.6,96.1c-1.3,0-2.3-0.9-2.5-2.2c0-0.1-0.1-0.2-0.1-0.2c-0.3-1.2-0.5-2.4-0.4-3.6v-0.8
	c0-0.8-0.1-1.7-0.2-2.5c-1.1,1.2-2.9,1.7-4.5,1.2c-0.4-0.1-1.2-0.4-1.2-1s0.8-0.7,1.3-0.8c1.5-0.3,1.6-0.4,2.1-1l0.4-0.5v-0.3
	c-0.7,0-1.4-0.2-2.1-0.5c-0.4,0.4-1.5,1.6-2.6,3c-0.5,0.7-1.3,1.1-2.2,0.9c-3.1-1-5.4-12.1-5.5-14.1c-0.1-3,0.6-5.2,2.3-6.4
	c3.1-2.2,8.3-0.4,9.2,0c1.1-0.8,2.5-1.2,3.9-1.2h0.1c0.8,0,1.6,0.1,2.4,0.2l0,0c2.1-0.6,7.4-1.5,10.7,2.6c1.5,1.9-0.1,9.2-4,15
	c0.2,0.2,0.9,0.8,3.6,0.2c0.2,0,1-0.2,1.1,0.3s-1.1,1.5-1.9,1.9c-1,0.4-2.1,0.6-3.2,0.5H198c-0.4-0.1-0.8-0.1-0.9-0.1
	c-0.2,0.4-0.3,0.8-0.3,1.2v0.3c0,0,0,0.1,0,0.1c-0.1,6.3-1.8,7.1-4.2,7.6C192.3,96,192,96.1,191.6,96.1z M188.7,86.4
	c0.3,0.9,0.4,1.9,0.4,2.9v0.8c0,1.2,0.1,2.3,0.4,3.4l0.1,0.2c0.3,0.9,0.7,2.2,2.9,1.8c1.9-0.4,3.6-0.8,3.8-7.2c0-0.1,0-0.1,0.1-0.1
	v-0.3c0.1-0.9,0.2-1.3,0.5-1.6s0.6-0.2,1.2,0h0.3c1,0,2-0.1,3-0.5c0.7-0.3,1.2-0.7,1.6-1.2c-0.2,0-0.3,0-0.5,0
	c-3.8,0.8-4.2-0.5-4.2-0.7c0-0.1,0-0.1,0-0.2c3.8-5.7,5.5-12.9,4.1-14.6c-3.1-3.9-8.1-3-10.2-2.5h-0.2c-0.8-0.2-1.6-0.2-2.4-0.2
	h-0.1c-1.3-0.1-2.7,0.3-3.7,1.1c-0.1,0-0.2,0-0.2,0c-0.1,0-5.7-2.3-8.8-0.1c-1.5,1.1-2.2,3.1-2.1,6c0.1,2.1,2.4,12.7,5.1,13.6
	c0.5,0.2,1.1-0.1,1.6-0.7c1.4-1.7,2.8-3.1,2.8-3.2c0.1-0.1,0.2-0.1,0.3,0c0.6,0.4,1.4,0.6,2.1,0.6h0.1c0.1,0,0.1,0,0.2,0.1
	c0,0.1,0.1,0.1,0.1,0.2c0,0.2,0,0.4,0,0.6c0,0.1,0,0.1-0.1,0.2c-0.2,0.2-0.3,0.4-0.4,0.6c-0.6,0.7-0.8,0.9-2.4,1.2
	c-0.8,0.2-0.9,0.4-0.9,0.4c0.2,0.2,0.5,0.4,0.9,0.5c1.6,0.5,3.3,0,4.3-1.4c0.1-0.1,0.2-0.2,0.3-0.1c0.1,0.1,0.1,0.2,0.1,0.3
	L188.7,86.4z"/>
<path class="st10" d="M191.7,96c-1.3,0-2.3-0.9-2.5-2.2l-0.1-0.3c-0.3-1.2-0.4-2.4-0.2-3.6c0.1-1.1-0.1-2.2-0.4-3.2
	c-0.8,0.9-1.9,1.3-3.1,1.3c-0.5,0-1-0.1-1.4-0.2c-0.5-0.1-1.3-0.5-1.3-1s0.8-0.8,1.3-0.9c1.5-0.3,1.6-0.4,2-1
	c0.1-0.1,0.2-0.3,0.4-0.5v-0.2h-0.1c-0.7,0-1.4-0.2-2-0.6c-0.4,0.4-1.5,1.6-2.6,3c-0.4,0.6-1,0.9-1.7,1c-3.6,0-5.9-12.5-6-14.2
	c-0.1-2.6,0.4-4.6,1.6-5.8c1.2-1.2,2.9-1.8,4.6-1.7c1.8,0,3.6,0.4,5.3,1c1.1-0.8,2.4-1.2,3.8-1.2h0.1c0.8,0,1.6,0.1,2.4,0.2
	c1.2-0.4,2.5-0.6,3.8-0.6c2.7-0.1,5.4,1.1,7.1,3.2c1.5,1.9-0.1,9.2-4,15c0.1,0.1,0.5,0.4,1.5,0.4c0.7,0,1.3-0.1,2-0.2
	c0.2,0,0.3-0.1,0.5-0.1c0.5,0,0.6,0.2,0.7,0.4c0.1,0.7-1.2,1.5-2,1.9c-0.9,0.4-1.9,0.6-2.9,0.5H198c-0.2,0-0.3-0.1-0.5-0.1
	c-0.3,0-0.4,0.1-0.5,1.3c0,0.3,0,0.6-0.1,0.8l-0.2,0.7c0,0.4-0.1,0.9-0.2,1.3c-0.1,0.4-0.2,0.8-0.2,1.2c-0.1,2.1-1.6,3.8-3.7,4
	C192.3,96,192,96,191.7,96z"/>
<path class="st1" d="M195.7,65.9c2.6-0.1,5.2,1.1,6.8,3.1c1.4,1.8-0.2,9.1-4.1,14.9c0,0,0.2,0.7,1.9,0.7c0.7,0,1.4-0.1,2.1-0.2l0,0
	c0.1,0,0.3,0,0.4,0c0.9,0,0,1.1-1.4,1.7c-0.9,0.4-1.8,0.5-2.8,0.5H198c-0.2,0-0.3-0.1-0.5-0.1c-0.8,0-0.7,0.7-0.9,2.3l-0.2,0.6
	c-0.1,0.8-0.2,1.7-0.4,2.5c-0.1,1.9-1.6,3.5-3.5,3.7c-0.3,0.1-0.6,0.1-0.9,0.1c-1.8,0-2.1-1.5-2.3-2.3c-0.3-1.1-0.4-2.3-0.2-3.5
	c0-1.6-0.2-3.3-0.6-3.6l0.1-0.2c-0.7,1.1-1.9,1.7-3.2,1.7c-0.5,0-0.9-0.1-1.3-0.2c-0.8-0.2-2-0.9,0.1-1.3s1.7-0.6,2.7-1.7
	c0-0.2,0-0.4,0-0.7h-0.4c-0.7,0-1.4-0.2-2-0.6c0,0-1.4,1.5-2.8,3.2c-0.3,0.5-0.9,0.8-1.5,0.9c-3.2,0-5.6-11.9-5.8-13.9
	c-0.2-5.9,2.9-7.2,6-7.2c1.8,0.1,3.6,0.4,5.3,1.1c1.1-0.8,2.4-1.2,3.8-1.2h0.1c0.8,0,1.6,0.1,2.4,0.2l0,0
	C193.1,66.1,194.4,65.9,195.7,65.9 M195.7,65.3c-1.3,0-2.6,0.2-3.8,0.6c-0.8-0.1-1.6-0.2-2.4-0.2h-0.1c-1.4,0-2.7,0.3-3.8,1.1
	c-1.7-0.6-3.4-1-5.2-1c-1.8-0.1-3.5,0.5-4.8,1.8c-1.3,1.3-1.8,3.3-1.7,6c0.1,1,2.3,14.5,6.3,14.5c0.8,0,1.5-0.4,2-1.1
	c1-1.2,2-2.3,2.4-2.8c0.5,0.3,1,0.4,1.6,0.4l-0.2,0.2c-0.4,0.5-0.5,0.6-1.9,0.9c-0.4,0.1-1.6,0.3-1.6,1.2s1.3,1.3,1.5,1.3
	c0.5,0.1,1,0.2,1.5,0.2c1.1,0,2.1-0.4,2.9-1.1c0.2,0.9,0.3,1.8,0.2,2.6c-0.2,1.2-0.1,2.5,0.2,3.7l0.1,0.3c0.2,1.4,1.4,2.4,2.8,2.4
	c0.3,0,0.7,0,1-0.1c2.2-0.2,3.8-2,3.9-4.2c0-0.4,0.1-0.8,0.2-1.2c0.1-0.4,0.2-0.8,0.2-1.2l0.2-0.5c0,0,0-0.1,0-0.1
	c0-0.3,0.1-0.6,0.1-0.8c0-0.3,0.1-0.7,0.1-1l0,0c0.1,0,0.3,0,0.4,0h0.8c1,0,2-0.2,3-0.6c0.9-0.4,2.3-1.3,2.1-2.2
	c-0.1-0.4-0.6-0.7-1-0.6c-0.2,0-0.4,0-0.6,0l0,0c-0.6,0.1-1.3,0.2-1.9,0.2c-0.4,0-0.8,0-1.2-0.2c3.6-5.6,5.5-13,3.8-15.2
	C201.2,66.4,198.5,65.2,195.7,65.3L195.7,65.3z"/>
<path class="st1" d="M191.9,96c-1.4,0-2.7-1-3.1-2.4c-0.4-0.9-0.5-5-0.4-8.2c0-0.1,0.1-0.2,0.2-0.2c0,0,0,0,0,0l0,0
	c0.1,0,0.2,0.1,0.2,0.3c0,0,0,0,0,0l0,0c-0.1,4,0,7.3,0.4,8c0.3,1.4,1.8,2.3,3.2,2h0.3c1.7-0.1,3-1.5,3.1-3.1l0.8-6.4
	c0-0.1,0.1-0.2,0.3-0.2c0,0,0,0,0,0l0,0c0.1,0,0.2,0.1,0.2,0.3l-0.8,6.4c-0.1,1.9-1.6,3.4-3.5,3.6h-0.2C192.5,96,192.2,96,191.9,96z
	 M180.1,87.6c-0.2,0-0.3,0-0.5-0.1c-3.1-1-5.4-12.1-5.5-14.1c-0.2-3,0.6-5.2,2.3-6.4c3.4-2.4,9.1-0.1,9.3,0c0.1,0,0.2,0.2,0.1,0.3
	c0,0,0,0,0,0l0,0c0,0.1-0.2,0.2-0.3,0.2l0,0c-0.1,0-5.7-2.3-8.9-0.1c-1.5,1.1-2.2,3.1-2.1,6c0.1,2.1,2.4,12.7,5.1,13.6
	c0.5,0.2,1.1-0.1,1.6-0.7c1.4-1.7,2.7-3,2.7-3c0.1-0.1,0.3-0.1,0.4,0l0,0c0.1,0.1,0.1,0.2,0,0.3c0,0,0,0,0,0c0,0-1.2,1.3-2.7,3
	C181.3,87.3,180.7,87.6,180.1,87.6L180.1,87.6z M198.4,84c0,0-0.1,0-0.1,0c-0.1-0.1-0.1-0.2-0.1-0.3c0,0,0,0,0,0l0,0
	c3.8-5.7,5.5-12.8,4.1-14.5c-3.6-4.6-9.7-2.6-10.2-2.4l0,0c-0.1,0-0.3,0-0.3-0.1c-0.1-0.1,0-0.3,0.1-0.3h0.1
	c0.8-0.3,7.1-2.2,10.8,2.6c1.5,1.9-0.1,9.2-4.1,15.1C198.6,84,198.5,84,198.4,84z"/>
<path class="st1" d="M198.6,86.7c-0.5,0-1-0.1-1.5-0.3c-0.2-0.1-0.4-0.3-0.4-0.6c-0.1-1.6,0.8-1.9,1.3-2h0.2
	c-0.1-0.2-0.2-0.4-0.4-0.6c-0.4-0.4-0.7-1-0.9-1.5c-0.1-0.3-0.3-0.5-0.4-0.8c-1-1.8-2.8-5.1-1.6-6.8c0.6-0.8,1.8-1.1,3.6-0.9
	c-0.5-1.5-1.3-2.9-2.4-4c-1.7-1.8-4-2.8-6.4-2.8h-0.1c-1.5-0.1-3.1,0.5-4.2,1.5c-2.4,2.4-2.4,6.8-2.4,6.9c0,0.1-0.1,0.2-0.2,0.2
	c0,0,0,0,0,0l0,0c-0.1,0-0.3-0.1-0.3-0.2c0,0,0,0,0,0l0,0c0-0.2-0.1-4.7,2.5-7.2c1.2-1.2,2.9-1.8,4.6-1.8h0.1c7,0.1,9.4,7,9.4,7.6
	c0,0.2-0.1,0.3-0.3,0.3c-1.8-0.3-2.9,0-3.4,0.7c-1,1.4,0.8,4.7,1.7,6.2c0.2,0.3,0.3,0.6,0.4,0.9c0.2,0.5,0.5,1,0.9,1.4
	c0.2,0.3,0.4,0.6,0.5,0.9l0,0c0.1,0.2,0.7,0.9,3.6,0.3c0.2,0,0.9-0.2,1.1,0.3c0.2,0.6-1.1,1.5-1.9,1.9
	C200.5,86.5,199.6,86.7,198.6,86.7z M198.4,84.2c-0.1,0-0.2,0.1-0.3,0.1c-0.4,0.1-1,0.3-0.9,1.5c0,0,0,0.1,0.1,0.2
	c1.3,0.3,2.7,0.3,3.9-0.3c0.7-0.2,1.3-0.7,1.7-1.3c-0.2,0-0.3,0-0.5,0.1c-1.8,0.4-3.1,0.3-3.8-0.1L198.4,84.2z"/>
<path class="st1" d="M187.5,84.2c0.2,0,0.3,0,0.4,0.1c0.7,0.3,0.9,1.1,0.6,1.8c-0.7,1.1-1.9,1.7-3.2,1.7c-0.5,0-0.9-0.1-1.3-0.2
	c-0.8-0.2-2-0.9,0.1-1.3s1.7-0.6,2.7-1.7l0,0C186.8,84.3,187.1,84.2,187.5,84.2 M187.4,83.6c-0.4,0-0.9,0.2-1.2,0.6l0,0
	c-0.2,0.2-0.4,0.4-0.5,0.6c-0.4,0.5-0.5,0.6-1.8,0.9c-0.4,0.1-1.6,0.3-1.6,1.2s1.3,1.3,1.5,1.3c0.5,0.1,1,0.2,1.5,0.3
	c1.5,0,2.9-0.7,3.7-1.9c0.3-0.4,0.4-1,0.2-1.5c-0.1-0.5-0.5-1-1-1.2c-0.2-0.1-0.5-0.2-0.7-0.2L187.4,83.6z"/>
<path class="st1" d="M186.6,84.8L186.6,84.8c-0.1,0-0.2-0.1-0.2-0.3c0,0,0,0,0,0l0,0v-0.4c-0.2,0-0.5,0-0.7-0.1
	c-2.3-0.4-3.9-2.6-3.5-5c0,0,0,0,0,0l0,0c0.2-1.4,0.2-2.8,0.1-4.2c0-0.6,1.9-1.5,3.2-1.6c1.2-0.3,2.4,0.5,2.6,1.7c0,0,0,0,0,0
	c0,0,0,0.1,0,0.1c0.7,2.4,0.4,5-0.8,7.2c-0.3,0.7-0.5,1.4-0.5,2.2C186.9,84.7,186.8,84.8,186.6,84.8L186.6,84.8z M182.8,75
	c0.1,1.4,0.1,2.8-0.1,4.2c-0.4,2,1,4,3,4.4c0.2,0,0.5,0.1,0.7,0.1c0.1-0.5,0.3-1.1,0.5-1.5c1.2-2.1,1.4-4.6,0.7-6.9
	c-0.1-0.7-0.6-1.3-1.4-1.4C185,73.8,183.8,74.2,182.8,75z"/>
<path class="st1" d="M185.5,74.9c0.1,0.3,0.3,0.5,0.6,0.6c0.3,0,0.6-0.1,0.7-0.4c0-0.2-0.3-0.3-0.7-0.4S185.6,74.7,185.5,74.9z"/>
<path class="st1" d="M197.2,74.5c-0.1,0.3-0.3,0.5-0.7,0.6c-0.3,0-0.6-0.1-0.7-0.4c0-0.2,0.3-0.3,0.7-0.4S197.2,74.4,197.2,74.5z"/>
<path class="st1" d="M197.8,82.9c0,0-0.1,0-0.1,0c-0.1-0.1-0.1-0.2-0.1-0.3c0.7-1.3,0.9-2.7,0.6-4.1c-0.1-0.6-0.1-1.1-0.1-1.7
	c0-0.5,0.1-1,0.2-1.5c0.1-0.6,0.2-1.1,0.1-1.7c0-0.1,0.1-0.3,0.2-0.3c0.1,0,0.3,0.1,0.3,0.2c0,0,0,0,0,0l0,0c0,0.6,0,1.2-0.1,1.8
	c-0.1,0.5-0.1,1-0.2,1.4c0,0.5,0,1.1,0.1,1.6c0.4,1.5,0.1,3.1-0.7,4.5C197.9,82.9,197.8,83,197.8,82.9z"/>
</svg>
